<svg width="52" height="53" viewBox="0 0 52 53" fill="none" xmlns="http://www.w3.org/2000/svg">
<path d="M51.5 26.5C51.5 40.8684 40.0743 52.5 26 52.5C11.9257 52.5 0.5 40.8684 0.5 26.5C0.5 12.1316 11.9257 0.5 26 0.5C40.0743 0.5 51.5 12.1316 51.5 26.5Z" stroke="white"/>
<path d="M23.6056 15.6745L25.1912 14.4036C25.8625 13.8655 26.9481 13.8655 27.6123 14.4036L41.4965 25.5268C42.1678 26.0649 42.1678 26.9351 41.4965 27.4675L27.6123 38.5964C26.941 39.1345 25.8554 39.1345 25.1912 38.5964L23.6056 37.3255C22.9271 36.7817 22.9414 35.8943 23.6342 35.3619L32.2404 28.7899H11.7141C10.7642 28.7899 10 28.1774 10 27.416V25.584C10 24.8226 10.7642 24.2101 11.7141 24.2101H32.2404L23.6342 17.6381C22.9343 17.1057 22.92 16.2183 23.6056 15.6745Z" fill="white"/>
</svg>
