<svg width="32" height="32" viewBox="0 0 32 32" fill="none" xmlns="http://www.w3.org/2000/svg">
<path d="M32 16C32 11.7565 30.3143 7.68687 27.3137 4.68629C24.3131 1.68571 20.2435 0 16 0C11.7565 0 7.68687 1.68571 4.68629 4.68629C1.68571 7.68687 0 11.7565 0 16C0 20.2435 1.68571 24.3131 4.68629 27.3137C7.68687 30.3143 11.7565 32 16 32C20.2435 32 24.3131 30.3143 27.3137 27.3137C30.3143 24.3131 32 20.2435 32 16ZM13.5875 23.5562L7.34375 16.8625C7.125 16.625 7 16.3188 7 16C7 15.6812 7.125 15.3687 7.34375 15.1375L13.5875 8.44375C13.85 8.1625 14.2188 8 14.6062 8C15.375 8 16 8.625 16 9.39375V13H22C23.1063 13 24 13.8938 24 15V17C24 18.1063 23.1063 19 22 19H16V22.6063C16 23.375 15.375 24 14.6062 24C14.2188 24 13.85 23.8375 13.5875 23.5562Z" fill="#84A59D"/>
</svg>
