<svg width="30" height="34" viewBox="0 0 30 34" fill="none" xmlns="http://www.w3.org/2000/svg">
<path d="M15 34C17.3652 34 19.2837 32.0975 19.2837 29.75H10.7163C10.7163 32.0975 12.6348 34 15 34ZM29.4234 24.0583C28.1297 22.6797 25.7089 20.6059 25.7089 13.8125C25.7089 8.65273 22.0607 4.52227 17.1415 3.50891V2.125C17.1415 0.951602 16.1826 0 15 0C13.8174 0 12.8585 0.951602 12.8585 2.125V3.50891C7.93931 4.52227 4.2911 8.65273 4.2911 13.8125C4.2911 20.6059 1.87035 22.6797 0.576607 24.0583C0.174823 24.4866 -0.00330191 24.9986 4.62982e-05 25.5C0.00741235 26.5891 0.86924 27.625 2.14959 27.625H27.8504C29.1308 27.625 29.9933 26.5891 30 25.5C30.0033 24.9986 29.8252 24.486 29.4234 24.0583Z" fill="#84A59D"/>
</svg>
