<svg width="32" height="28" viewBox="0 0 32 28" fill="none" xmlns="http://www.w3.org/2000/svg">
<path d="M0 10C0 7.79375 1.79375 6 4 6C4.03125 6 4.06875 6 4.1 6C4.5625 3.71875 6.58125 2 9 2C9.9375 2 10.8125 2.25625 11.5562 2.7C12.3875 1.1 14.0688 0 16 0C17.9312 0 19.6125 1.1 20.4438 2.7C21.1875 2.25625 22.0625 2 23 2C25.4188 2 27.4375 3.71875 27.9 6C27.9312 6 27.9688 6 28 6C30.2062 6 32 7.79375 32 10C32 10.7312 31.8062 11.4125 31.4625 12H0.5375C0.19375 11.4125 0 10.7312 0 10ZM0 15.7125C0 14.7687 0.76875 14 1.7125 14H30.2875C31.2313 14 32 14.7687 32 15.7125C32 20.1187 29.225 23.8813 25.3312 25.3438L25.2188 26.25C25.0938 27.25 24.2438 28 23.2313 28H8.7625C7.75625 28 6.9 27.25 6.775 26.25L6.6625 25.35C2.775 23.8813 0 20.1187 0 15.7125Z" fill="#84A59D"/>
</svg>
