<svg width="52" height="53" viewBox="0 0 52 53" fill="none" xmlns="http://www.w3.org/2000/svg">
<path d="M51.5 26.5C51.5 40.8684 40.0743 52.5 26 52.5C11.9257 52.5 0.5 40.8684 0.5 26.5C0.5 12.1316 11.9257 0.5 26 0.5C40.0743 0.5 51.5 12.1316 51.5 26.5Z" stroke="white"/>
<path d="M26.5 13C17.3863 13 10 18.6109 10 25.5357C10 28.525 11.3793 31.2612 13.6738 33.4127C12.8682 36.4502 10.174 39.1563 10.1418 39.1864C10 39.325 9.96133 39.5299 10.0451 39.7107C10.1289 39.8915 10.3094 40 10.5156 40C14.7889 40 17.9922 38.0835 19.5777 36.9022C21.6854 37.6435 24.025 38.0714 26.5 38.0714C35.6137 38.0714 43 32.4605 43 25.5357C43 18.6109 35.6137 13 26.5 13ZM18.25 27.4643C17.1092 27.4643 16.1875 26.6025 16.1875 25.5357C16.1875 24.469 17.1092 23.6071 18.25 23.6071C19.3908 23.6071 20.3125 24.469 20.3125 25.5357C20.3125 26.6025 19.3908 27.4643 18.25 27.4643ZM26.5 27.4643C25.3592 27.4643 24.4375 26.6025 24.4375 25.5357C24.4375 24.469 25.3592 23.6071 26.5 23.6071C27.6408 23.6071 28.5625 24.469 28.5625 25.5357C28.5625 26.6025 27.6408 27.4643 26.5 27.4643ZM34.75 27.4643C33.6092 27.4643 32.6875 26.6025 32.6875 25.5357C32.6875 24.469 33.6092 23.6071 34.75 23.6071C35.8908 23.6071 36.8125 24.469 36.8125 25.5357C36.8125 26.6025 35.8908 27.4643 34.75 27.4643Z" fill="white"/>
</svg>
