<svg width="52" height="53" viewBox="0 0 52 53" fill="none" xmlns="http://www.w3.org/2000/svg">
<path d="M51.5 26.5C51.5 40.8684 40.0743 52.5 26 52.5C11.9257 52.5 0.5 40.8684 0.5 26.5C0.5 12.1316 11.9257 0.5 26 0.5C40.0743 0.5 51.5 12.1316 51.5 26.5Z" stroke="#C51414"/>
<path d="M37.3785 17.8832C38.3405 16.8903 38.3128 15.3083 37.3165 14.3431C36.3203 13.3778 34.7382 13.4002 33.7762 14.393L25.95 22.4706L17.8449 14.6177C16.8486 13.6524 15.2665 13.6748 14.3046 14.6676C13.3426 15.6605 13.3703 17.2425 14.3665 18.2077L22.4716 26.0606L14.6454 34.1382C13.6834 35.1311 13.7111 36.7131 14.7073 37.6783C15.7036 38.6436 17.2857 38.6213 18.2476 37.6284L26.0739 29.5508L34.179 37.4037C35.1753 38.369 36.7573 38.3467 37.7193 37.3538C38.6813 36.3609 38.6536 34.779 37.6573 33.8137L29.5522 25.9608L37.3785 17.8832Z" fill="#C51414"/>
</svg>
