<svg width="52" height="53" viewBox="0 0 52 53" fill="none" xmlns="http://www.w3.org/2000/svg">
<path d="M51.5 26.5C51.5 40.8684 40.0743 52.5 26 52.5C11.9257 52.5 0.5 40.8684 0.5 26.5C0.5 12.1316 11.9257 0.5 26 0.5C40.0743 0.5 51.5 12.1316 51.5 26.5Z" stroke="#84A59D"/>
<path d="M12.975 28.1406L24.2688 38.6843C24.7375 39.1218 25.3562 39.3656 26 39.3656C26.6437 39.3656 27.2625 39.1218 27.7313 38.6843L39.025 28.1406C40.925 26.3718 42 23.8906 42 21.2968V20.9343C42 16.5656 38.8438 12.8406 34.5375 12.1218C31.6875 11.6468 28.7875 12.5781 26.75 14.6156L26 15.3656L25.25 14.6156C23.2125 12.5781 20.3125 11.6468 17.4625 12.1218C13.1562 12.8406 10 16.5656 10 20.9343V21.2968C10 23.8906 11.075 26.3718 12.975 28.1406Z" fill="#84A59D"/>
</svg>
