<svg width="32" height="33" viewBox="0 0 32 33" fill="none" xmlns="http://www.w3.org/2000/svg">
<path d="M10.6097 0.95503C9.18467 0.85503 7.99092 1.83003 7.64092 3.12378L6.90342 5.89878C6.93467 5.89878 6.97217 5.89878 7.00342 5.89878C18.0472 5.89878 27.0034 14.855 27.0034 25.8988C27.0034 25.93 27.0034 25.9675 27.0034 25.9988L29.7784 25.2613C31.0784 24.9175 32.0472 23.7175 31.9472 22.2925C31.1597 10.8675 22.0347 1.74253 10.6097 0.95503ZM24.9909 26.5363C24.9972 26.3238 25.0034 26.1113 25.0034 25.8988C25.0034 15.955 16.9472 7.89878 7.00342 7.89878C6.79092 7.89878 6.57842 7.90503 6.36592 7.91128L0.0346686 31.6425C-0.0590814 31.9863 0.0409186 32.355 0.290919 32.605C0.540919 32.855 0.909669 32.955 1.25342 32.8613L24.9909 26.5363ZM11.0034 13.8988C11.5339 13.8988 12.0426 14.1095 12.4176 14.4846C12.7927 14.8596 13.0034 15.3683 13.0034 15.8988C13.0034 16.4292 12.7927 16.9379 12.4176 17.313C12.0426 17.6881 11.5339 17.8988 11.0034 17.8988C10.473 17.8988 9.96428 17.6881 9.58921 17.313C9.21413 16.9379 9.00342 16.4292 9.00342 15.8988C9.00342 15.3683 9.21413 14.8596 9.58921 14.4846C9.96428 14.1095 10.473 13.8988 11.0034 13.8988ZM15.0034 21.8988C15.0034 21.3683 15.2141 20.8596 15.5892 20.4846C15.9643 20.1095 16.473 19.8988 17.0034 19.8988C17.5339 19.8988 18.0426 20.1095 18.4176 20.4846C18.7927 20.8596 19.0034 21.3683 19.0034 21.8988C19.0034 22.4292 18.7927 22.9379 18.4176 23.313C18.0426 23.6881 17.5339 23.8988 17.0034 23.8988C16.473 23.8988 15.9643 23.6881 15.5892 23.313C15.2141 22.9379 15.0034 22.4292 15.0034 21.8988ZM6.00342 24.8988C6.00342 24.3683 6.21413 23.8596 6.5892 23.4846C6.96428 23.1095 7.47299 22.8988 8.00342 22.8988C8.53385 22.8988 9.04256 23.1095 9.41763 23.4846C9.7927 23.8596 10.0034 24.3683 10.0034 24.8988C10.0034 25.4292 9.7927 25.9379 9.41763 26.313C9.04256 26.6881 8.53385 26.8988 8.00342 26.8988C7.47299 26.8988 6.96428 26.6881 6.5892 26.313C6.21413 25.9379 6.00342 25.4292 6.00342 24.8988Z" fill="#84A59D"/>
</svg>
