<svg width="34" height="34" viewBox="0 0 34 34" fill="none" xmlns="http://www.w3.org/2000/svg">
<path d="M12.2062 0C14.0561 0 15.8302 0.895707 17.1383 2.49008C18.4463 4.08444 19.1812 6.24687 19.1812 8.50165C19.1812 10.7564 18.4463 12.9189 17.1383 14.5132C15.8302 16.1076 14.0561 17.0033 12.2062 17.0033C10.3563 17.0033 8.58223 16.1076 7.27416 14.5132C5.9661 12.9189 5.23124 10.7564 5.23124 8.50165C5.23124 6.24687 5.9661 4.08444 7.27416 2.49008C8.58223 0.895707 10.3563 0 12.2062 0ZM9.71593 20.1914H14.6965C15.3395 20.1914 15.9716 20.2711 16.5765 20.4106C16.4621 21.6394 16.9797 22.7751 17.7644 23.3862C16.8598 24.0902 16.3095 25.485 16.6746 26.9263C16.8925 27.7831 17.1868 28.62 17.5682 29.4237C17.9497 30.2274 18.3965 30.958 18.8978 31.6155C19.7534 32.738 21.0557 32.8376 22.0148 32.1934V32.2531C22.0148 32.8642 22.1619 33.4819 22.4453 34H1.61841C0.724744 34.0066 0 33.1232 0 32.034C0 25.4917 4.34847 20.1914 9.71593 20.1914ZM23.7585 14.4927C23.7585 14.0277 24.0038 13.6093 24.3743 13.5097C24.9465 13.3502 25.5459 13.2639 26.1562 13.2639C26.7665 13.2639 27.3659 13.3502 27.9381 13.5097C28.3086 13.6093 28.5538 14.0277 28.5538 14.4927V16.5251C28.9843 16.7509 29.393 17.0365 29.769 17.3753L31.1259 16.4255C31.4583 16.193 31.8724 16.2461 32.134 16.5849C32.5481 17.1229 32.9132 17.7273 33.2293 18.3915C33.5453 19.0557 33.7905 19.7464 33.9649 20.4505C34.0793 20.8955 33.905 21.3604 33.5726 21.5929L32.2103 22.5493C32.2321 22.815 32.2484 23.0873 32.2484 23.3663C32.2484 23.6452 32.2375 23.9109 32.2103 24.1832L33.5726 25.1397C33.905 25.3721 34.0739 25.8371 33.9649 26.2821C33.7851 26.9861 33.5399 27.6769 33.2293 28.3411C32.9187 29.0052 32.5481 29.6097 32.134 30.1477C31.8724 30.4864 31.4528 30.5395 31.1259 30.3071L29.769 29.3573C29.393 29.696 28.9898 29.9816 28.5538 30.2074V32.2399C28.5538 32.7048 28.3086 33.1232 27.9381 33.2229C27.3659 33.3823 26.7665 33.4686 26.1562 33.4686C25.5459 33.4686 24.9465 33.3823 24.3743 33.2229C24.0038 33.1232 23.7585 32.7048 23.7585 32.2399V30.2074C23.3226 29.9816 22.9085 29.696 22.5325 29.3506L21.1865 30.3004C20.8541 30.5329 20.44 30.4797 20.1784 30.141C19.7643 29.603 19.3992 28.9986 19.0831 28.3344C18.7671 27.6702 18.5219 26.9795 18.3475 26.2754C18.233 25.8304 18.4074 25.3655 18.7398 25.133L20.0912 24.1832C20.0694 23.9109 20.0531 23.6386 20.0531 23.3596C20.0531 23.0807 20.064 22.8083 20.0912 22.536L18.7344 21.5862C18.402 21.3538 18.233 20.8888 18.342 20.4438C18.5219 19.7398 18.7616 19.049 19.0777 18.3848C19.3937 17.7206 19.7588 17.1162 20.173 16.5782C20.4345 16.2395 20.8487 16.1863 21.1811 16.4188L22.5325 17.3686C22.9085 17.0299 23.3226 16.7443 23.7585 16.5118V14.4927ZM28.7773 23.3596C28.7934 22.9283 28.7376 22.4974 28.6133 22.093C28.489 21.6887 28.2988 21.3193 28.0541 21.007C27.8093 20.6948 27.5152 20.4463 27.1895 20.2765C26.8638 20.1068 26.5132 20.0192 26.1589 20.0192C25.8046 20.0192 25.4541 20.1068 25.1283 20.2765C24.8026 20.4463 24.5085 20.6948 24.2638 21.007C24.019 21.3193 23.8288 21.6887 23.7045 22.093C23.5802 22.4974 23.5244 22.9283 23.5406 23.3596C23.5244 23.791 23.5802 24.2218 23.7045 24.6262C23.8288 25.0305 24.019 25.4 24.2638 25.7122C24.5085 26.0244 24.8026 26.2729 25.1283 26.4427C25.4541 26.6125 25.8046 26.7 26.1589 26.7C26.5132 26.7 26.8638 26.6125 27.1895 26.4427C27.5152 26.2729 27.8093 26.0244 28.0541 25.7122C28.2988 25.4 28.489 25.0305 28.6133 24.6262C28.7376 24.2218 28.7934 23.791 28.7773 23.3596Z" fill="#84A59D"/>
</svg>
